<svg width="39" height="39" viewBox="0 0 39 39" fill="none" xmlns="http://www.w3.org/2000/svg">
<path d="M27.5347 13.1763V24.2049H24.7266V13.1763H27.5347Z" fill="#ABABAB"/>
<path d="M24.5682 19.0857C24.5682 18.2251 25.2023 17.5684 26.1308 17.5684C27.0819 17.5684 27.6707 18.2251 27.6933 19.0857C27.6933 19.9236 27.0819 20.5803 26.1081 20.5803C25.1796 20.5803 24.5682 19.9236 24.5682 19.0857Z" fill="#ABABAB"/>
<path fill-rule="evenodd" clip-rule="evenodd" d="M20.7441 27.3416L19.3626 23.0162H14.5164L13.203 27.3416H10.3269L15.2185 12.0781H18.7738L23.7333 27.3416H20.7441ZM16.1469 17.1509L14.9694 20.9101H18.8871L17.6868 17.1509C17.4486 16.3994 17.2401 15.5737 17.049 14.818C17.0041 14.64 16.9601 14.4658 16.9169 14.2974H16.8716C16.7942 14.6 16.7165 14.9237 16.6371 15.2551C16.4847 15.891 16.3256 16.5555 16.1469 17.1509Z" fill="#ABABAB"/>
<path fill-rule="evenodd" clip-rule="evenodd" d="M30.2643 0.598229C23.1274 -0.19941 15.7501 -0.19941 8.61346 0.598229C4.47114 1.0612 1.12707 4.32433 0.640073 8.48819C-0.213358 15.7849 -0.213358 23.1564 0.640073 30.4532C1.12707 34.617 4.47114 37.8801 8.61346 38.3431C15.7501 39.1407 23.1274 39.1407 30.2643 38.3431C34.4065 37.8801 37.7505 34.617 38.2376 30.4532C39.0909 23.1564 39.0909 15.7849 38.2376 8.48819C37.7505 4.32433 34.4065 1.0612 30.2643 0.598229ZM8.95646 3.66724C15.8652 2.89506 23.0124 2.89506 29.9211 3.66724C32.6596 3.97329 34.853 6.13417 35.1705 8.84693C35.996 15.9053 35.996 23.036 35.1705 30.0944C34.853 32.8072 32.6596 34.968 29.9211 35.2742C23.0124 36.0462 15.8652 36.0462 8.95646 35.2742C6.21811 34.968 4.02454 32.8072 3.70727 30.0944C2.88171 23.036 2.88171 15.9053 3.70727 8.84693C4.02454 6.13417 6.21811 3.97329 8.95646 3.66724Z" fill="#ABABAB"/>
</svg>
