<svg width="47" height="38" viewBox="0 0 47 38" fill="none" xmlns="http://www.w3.org/2000/svg">
<path fill-rule="evenodd" clip-rule="evenodd" d="M9.57841 0.873047C6.94708 0.873047 5.00005 3.17611 5.08721 5.67378C5.17083 8.07336 5.06219 11.1811 4.27978 13.7155C3.49504 16.2573 2.16783 17.8675 0 18.0742V20.4081C2.16783 20.6148 3.49504 22.2251 4.27978 24.767C5.06219 27.3013 5.17083 30.4091 5.08721 32.8086C5.00005 35.306 6.94708 37.6093 9.57879 37.6093H36.5408C39.1723 37.6093 41.119 35.3064 41.0317 32.8086C40.9482 30.4091 41.0567 27.3013 41.8391 24.767C42.6243 22.2251 43.948 20.6148 46.1158 20.4081V18.0742C43.948 17.8675 42.6243 16.2573 41.8391 13.7155C41.0567 11.1815 40.9482 8.07336 41.0317 5.67378C41.119 3.17649 39.1723 0.873047 36.5408 0.873047H9.57841ZM31.265 23.4865C31.265 26.9258 28.6996 29.0116 24.4425 29.0116H17.1957C16.9884 29.0116 16.7896 28.9291 16.643 28.7825C16.4965 28.6359 16.4141 28.4372 16.4141 28.2299V10.2525C16.4141 10.0452 16.4965 9.84644 16.643 9.69984C16.7896 9.55325 16.9884 9.47092 17.1957 9.47092H24.4012C27.9508 9.47092 30.2804 11.3937 30.2804 14.3459C30.2804 16.4179 28.7134 18.2731 26.7166 18.5979V18.7062C29.4348 19.0044 31.265 20.8865 31.265 23.4865ZM23.6524 11.9487H19.5202V17.7851H23.0005C25.6907 17.7851 27.1743 16.7017 27.1743 14.7652C27.1743 12.9507 25.8986 11.9487 23.6524 11.9487ZM19.5202 20.101V26.533H23.8044C26.6054 26.533 28.0891 25.409 28.0891 23.2967C28.0891 21.184 26.5639 20.1007 23.6242 20.1007L19.5202 20.101Z" fill="#ABABAB"/>
</svg>
