<svg width="30" height="44" viewBox="0 0 30 44" fill="none" xmlns="http://www.w3.org/2000/svg">
<path fill-rule="evenodd" clip-rule="evenodd" d="M8.3929 0.579102C4.02768 0.579102 0.515625 4.24174 0.515625 8.72876C0.515625 11.4572 1.81393 13.88 3.81139 15.3594C1.81393 16.8387 0.515625 19.2616 0.515625 21.99C0.515625 24.7185 1.81393 27.1413 3.81139 28.6206C1.81393 30.0999 0.515625 32.5228 0.515625 35.2512C0.515625 39.7382 4.02768 43.4009 8.3929 43.4009C12.758 43.4009 16.2701 39.7382 16.2701 35.2512V28.3582C17.6151 29.4717 19.3264 30.1397 21.1866 30.1397C25.5518 30.1397 29.0639 26.477 29.0639 21.99C29.0639 19.2616 27.7657 16.8387 25.7682 15.3594C27.7657 13.88 29.0639 11.4572 29.0639 8.72876C29.0639 4.24174 25.5518 0.579102 21.1866 0.579102H8.3929ZM3.47645 8.72876C3.47645 5.89024 5.69088 3.61713 8.3929 3.61713H13.3094V13.8404H8.3929C5.69088 13.8404 3.47645 11.5673 3.47645 8.72876ZM21.1866 13.8404H16.2701V3.61713H21.1866C23.8887 3.61713 26.1031 5.89024 26.1031 8.72876C26.1031 11.5673 23.8887 13.8404 21.1866 13.8404ZM3.47645 21.99C3.47645 19.1515 5.69088 16.8784 8.3929 16.8784H13.3094V27.1017H8.3929C5.69088 27.1017 3.47645 24.8286 3.47645 21.99ZM16.2701 21.99C16.2701 19.1515 18.4846 16.8784 21.1866 16.8784C23.8887 16.8784 26.1031 19.1515 26.1031 21.99C26.1031 24.8286 23.8887 27.1017 21.1866 27.1017C18.4846 27.1017 16.2701 24.8286 16.2701 21.99ZM3.47645 35.2512C3.47645 32.4128 5.69088 30.1397 8.3929 30.1397H13.3094V35.2512C13.3094 38.0898 11.0949 40.3629 8.3929 40.3629C5.69088 40.3629 3.47645 38.0898 3.47645 35.2512Z" fill="#ABABAB"/>
</svg>
