<svg width="44" height="42" viewBox="0 0 44 42" fill="none" xmlns="http://www.w3.org/2000/svg">
<path fill-rule="evenodd" clip-rule="evenodd" d="M22.284 0C10.4544 0 0.873047 9.58138 0.873047 21.4109C0.873047 30.8852 7.00192 38.8876 15.5128 41.7245C16.5833 41.9119 16.9848 41.2695 16.9848 40.7075C16.9848 40.199 16.958 38.5129 16.958 36.7197C11.5785 37.71 10.1868 35.4083 9.75858 34.2039C9.5177 33.5884 8.47392 31.6882 7.56396 31.1796C6.81458 30.7782 5.74403 29.7879 7.53719 29.7612C9.2233 29.7344 10.4277 31.3135 10.8291 31.9558C12.7561 35.1942 15.8339 34.2842 17.0651 33.7222C17.2524 32.3305 17.8144 31.3938 18.43 30.8585C13.6661 30.3232 8.68803 28.4765 8.68803 20.2868C8.68803 17.9584 9.5177 16.0314 10.8826 14.5327C10.6685 13.9974 9.91916 11.8028 11.0968 8.85877C11.0968 8.85877 12.8899 8.29673 16.9848 11.0534C18.6976 10.5716 20.5176 10.3308 22.3375 10.3308C24.1574 10.3308 25.9773 10.5716 27.6902 11.0534C31.7851 8.26997 33.5782 8.85877 33.5782 8.85877C34.7558 11.8028 34.0064 13.9974 33.7923 14.5327C35.1573 16.0314 35.9869 17.9316 35.9869 20.2868C35.9869 28.5033 30.9821 30.3232 26.2182 30.8585C26.9944 31.5276 27.6635 32.8122 27.6635 34.8195C27.6635 37.6832 27.6367 39.9849 27.6367 40.7075C27.6367 41.2695 28.0381 41.9386 29.1087 41.7245C33.3591 40.2896 37.0527 37.558 39.6693 33.9138C42.2859 30.2699 43.6938 25.897 43.6949 21.4109C43.6949 9.58138 34.1135 0 22.284 0Z" fill="black"/>
</svg>
