<svg width="40" height="40" viewBox="0 0 40 40" fill="none" xmlns="http://www.w3.org/2000/svg">
<path fill-rule="evenodd" clip-rule="evenodd" d="M0.692627 0.683594H39.5486V39.5396H0.692627V0.683594ZM30.3959 33.2572C28.5949 33.2572 27.5766 32.3179 26.794 31.04L23.8267 32.7639C24.8986 34.8817 27.0894 36.4976 30.4804 36.4976C33.9483 36.4976 36.5308 34.6968 36.5308 31.4094C36.5308 28.3602 34.7792 27.0038 31.6769 25.6735L30.7641 25.2825C29.1975 24.6041 28.519 24.1607 28.519 23.0653C28.519 22.179 29.1969 21.5005 30.2664 21.5005C31.3148 21.5005 31.9901 21.9427 32.6162 23.0653L35.4595 21.2397C34.2567 19.1241 32.5879 18.3161 30.2664 18.3161C27.0056 18.3161 24.919 20.4009 24.919 23.1393C24.919 26.1121 26.6693 27.5183 29.3042 28.6408L30.217 29.0324C31.8823 29.7608 32.8752 30.2043 32.8752 31.4562C32.8752 32.5011 31.9087 33.2572 30.3959 33.2572ZM16.2455 33.2344C14.991 33.2344 14.4692 32.374 13.8956 31.3563L10.9235 33.1558C11.7845 34.978 13.4775 36.491 16.4009 36.491C19.6364 36.491 21.8531 34.7701 21.8531 30.9895V18.5246H18.2019V30.9401C18.2019 32.765 17.4451 33.2344 16.2455 33.2344Z" fill="#ABABAB"/>
</svg>
