<?xml version="1.0" encoding="utf-8"?>
<!-- Generator: Adobe Illustrator 26.1.0, SVG Export Plug-In . SVG Version: 6.00 Build 0)  -->
<svg version="1.1" id="Layer_1" xmlns="http://www.w3.org/2000/svg" xmlns:xlink="http://www.w3.org/1999/xlink" x="0px" y="0px"
	 viewBox="0 0 792 612" style="enable-background:new 0 0 792 612;" xml:space="preserve">
<style type="text/css">
	.st0{fill:#FFFFFF;stroke:#0795D3;stroke-width:16;stroke-miterlimit:10;}
	.st1{fill:none;stroke:#0795D3;stroke-width:16;stroke-linecap:round;stroke-miterlimit:10;}
	.st2{fill:none;stroke:#0795D3;stroke-width:16;stroke-miterlimit:10;}
</style>
<path class="st0" d="M438.87,310.96c-0.12-4.55-5.58-6.64-8.75-3.37c-5.2,5.35-12.85,10.8-22.46,10.8
	c-10.3,0-49.48,7.86-82.97,15.01c-34.21,7.3-69.53,7.3-103.74,0c-33.49-7.15-72.67-15.01-82.97-15.01c-9.61,0-17.26-5.45-22.46-10.8
	c-3.17-3.26-8.63-1.17-8.75,3.37c-1.03,39.15,9.94,149.28,166.05,149.28S439.9,350.11,438.87,310.96z"/>
<path class="st1" d="M166.98,244.7c0,0,22.79-22.79,45.58,0"/>
<path class="st1" d="M328.37,244.7c0,0,22.79-22.79,45.58,0"/>
<circle class="st2" cx="272.82" cy="306" r="227.07"/>
<path class="st0" d="M667.3,507.85"/>
<path class="st0" d="M504.24,267.69c-20.59-17.5-50.59,4.74-39.89,29.56c1.21,2.8,2.71,5.73,4.57,8.75
	c34.98,56.73-26.81,118.11,10.72,159.47s100.34,66.64,162.38,4.6s107.18-88.14,75.83-106.47c-30.13-17.62-117.45,68.68-58.21,19.52
	c0,0,86.04-68.54,67.53-89.22s-93.06,69.05-89.74,51.32c0.72-3.84,92.35-82.47,73.53-110.64c-25.54-38.22-115.04,106-100.34,76.17
	c8.72-17.69,75.76-80.06,38.3-91.91c-40.34-12.77-116.43,152.34-113.36,116.77C537.32,315.05,523,283.64,504.24,267.69z"/>
</svg>
