<svg width="40" height="39" viewBox="0 0 40 39" fill="none" xmlns="http://www.w3.org/2000/svg">
<path fill-rule="evenodd" clip-rule="evenodd" d="M0.0133667 3.40629C0.0133667 2.55482 0.361281 1.73822 0.980567 1.13613C1.59985 0.534051 2.43979 0.195801 3.31558 0.195801H36.2389C36.6726 0.195801 37.102 0.278848 37.5026 0.440191C37.9032 0.601534 38.2673 0.83801 38.574 1.13613C38.8805 1.43426 39.1238 1.78818 39.2898 2.17768C39.4557 2.5672 39.5412 2.98468 39.5412 3.40629V35.415C39.5412 35.8367 39.4557 36.2542 39.2898 36.6436C39.1238 37.0332 38.8805 37.3871 38.574 37.6853C38.2673 37.9833 37.9032 38.2198 37.5026 38.3813C37.102 38.5425 36.6726 38.6256 36.2389 38.6256H3.31558C2.43979 38.6256 1.59985 38.2873 0.980567 37.6853C0.361281 37.0831 0.0133667 36.2666 0.0133667 35.415V3.40629ZM15.6598 14.8472H21.0126V17.4621C21.7841 15.9583 23.7613 14.607 26.7316 14.607C32.4253 14.607 33.7767 17.5997 33.7767 23.0911V33.2615H28.0122V24.3417C28.0122 21.2146 27.2407 19.4507 25.2782 19.4507C22.5566 19.4507 21.4242 21.3522 21.4242 24.3417V33.2615H15.6598V14.8472ZM5.77783 33.0213H11.5423V14.607H5.77783V33.0213ZM12.3658 8.60231C12.3658 9.07544 12.2699 9.54394 12.0837 9.98104C11.8975 10.4181 11.6245 10.8153 11.2804 11.1499C10.9363 11.4844 10.5278 11.7498 10.0782 11.9309C9.62859 12.1119 9.14671 12.2051 8.66006 12.2051C8.17343 12.2051 7.69155 12.1119 7.24195 11.9309C6.79234 11.7498 6.38384 11.4844 6.03971 11.1499C5.69561 10.8153 5.42266 10.4181 5.23642 9.98104C5.0502 9.54394 4.95434 9.07544 4.95434 8.60231C4.95434 7.6468 5.34476 6.73041 6.03971 6.05475C6.73468 5.3791 7.67725 4.99952 8.66006 4.99952C9.64289 4.99952 10.5855 5.3791 11.2804 6.05475C11.9754 6.73041 12.3658 7.6468 12.3658 8.60231Z" fill="black"/>
</svg>
