<svg width="44" height="44" viewBox="0 0 44 44" fill="none" xmlns="http://www.w3.org/2000/svg">
<path d="M20.9707 0.166417C20.8777 0.174866 20.5819 0.204438 20.3157 0.22556C14.1775 0.778975 8.42793 4.09102 4.78637 9.18159C2.75859 12.012 1.46166 15.2227 0.971612 18.6234C0.798405 19.8106 0.777283 20.1612 0.777283 21.7707C0.777283 23.3804 0.798405 23.731 0.971612 24.918C2.14603 33.0335 7.921 39.8519 15.7533 42.3781C17.1558 42.8301 18.6344 43.1385 20.3157 43.3243C20.9707 43.3962 23.801 43.3962 24.4559 43.3243C27.3581 43.0033 29.8168 42.2852 32.2417 41.0473C32.6135 40.8572 32.6852 40.8066 32.6346 40.7643C32.6007 40.7389 31.0167 38.614 29.1155 36.0455L25.6599 31.3773L21.3297 24.9688C18.947 21.4455 16.9869 18.5644 16.97 18.5644C16.9531 18.56 16.9362 21.4075 16.9277 24.8842C16.9151 30.9718 16.9108 31.2169 16.8348 31.3604C16.725 31.5675 16.6404 31.652 16.463 31.7449C16.3278 31.8126 16.2096 31.8252 15.5717 31.8252H14.8408L14.6465 31.7027C14.5197 31.6224 14.4268 31.5167 14.3634 31.3943L14.2747 31.2041L14.2831 22.7339L14.2958 14.2595L14.4268 14.0947C14.4944 14.006 14.638 13.892 14.7394 13.837C14.9126 13.7526 14.9802 13.7441 15.711 13.7441C16.5729 13.7441 16.7165 13.7779 16.9404 14.0229C17.0038 14.0905 19.3484 17.6222 22.1535 21.8764C24.9585 26.1304 28.7944 31.9392 30.6787 34.7908L34.1006 39.9743L34.2738 39.8603C35.8073 38.8633 37.4295 37.4438 38.7136 35.9652C41.4469 32.8264 43.2086 28.999 43.8001 24.918C43.9733 23.731 43.9944 23.3804 43.9944 21.7707C43.9944 20.1612 43.9733 19.8106 43.8001 18.6234C42.6257 10.5081 36.8506 3.68969 29.0184 1.16341C27.6369 0.715608 26.1668 0.407216 24.5193 0.221336C24.1136 0.17909 21.3213 0.13262 20.9707 0.166417ZM29.8168 13.2372C30.0196 13.3386 30.1844 13.5329 30.2434 13.7357C30.2773 13.8455 30.2857 16.1943 30.2773 21.4876L30.2647 29.0834L28.9255 27.0302L27.582 24.9772V19.4557C27.582 15.886 27.5989 13.8793 27.6243 13.7821C27.6918 13.5456 27.8397 13.3597 28.0424 13.2498C28.2156 13.1611 28.279 13.1527 28.9424 13.1527C29.5676 13.1527 29.6775 13.1611 29.8168 13.2372Z" fill="#ABABAB"/>
</svg>
