<svg width="41" height="44" viewBox="0 0 41 44" fill="none" xmlns="http://www.w3.org/2000/svg">
<path d="M20.4314 43.2918C19.8163 43.2918 19.2421 43.1331 18.7091 42.8558L13.2547 39.7251C12.4345 39.2891 12.8446 39.1307 13.0907 39.0513C14.1979 38.6947 14.403 38.6155 15.5513 37.9813C15.6743 37.902 15.8383 37.9417 15.9613 38.0209L20.1444 40.4383C20.3084 40.5176 20.5134 40.5176 20.6365 40.4383L36.9994 31.2839C37.1635 31.2047 37.2456 31.0462 37.2456 30.8479V12.5787C37.2456 12.3805 37.1635 12.222 36.9994 12.1428L20.6365 3.02793C20.4725 2.94868 20.2674 2.94868 20.1444 3.02793L3.78136 12.1428C3.61733 12.222 3.53531 12.4202 3.53531 12.5787V30.8479C3.53531 31.0066 3.61733 31.2047 3.78136 31.2839L8.25145 33.7806C10.6711 34.9694 12.1884 33.5825 12.1884 32.1954V14.1639C12.1884 13.9261 12.3935 13.6883 12.6805 13.6883H14.772C15.0181 13.6883 15.2642 13.8865 15.2642 14.1639V32.1954C15.2642 35.3261 13.5007 37.1492 10.425 37.1492C9.48175 37.1492 8.74359 37.1492 6.65208 36.1584L2.34601 33.7806C1.27976 33.1862 0.623596 32.0766 0.623596 30.8875V12.6183C0.623596 11.4294 1.27976 10.3198 2.34601 9.72536L18.7091 0.570897C19.7342 0.0160811 21.1287 0.0160811 22.1538 0.570897L38.5169 9.72536C39.5831 10.3198 40.2393 11.4294 40.2393 12.6183V30.8875C40.2393 32.0766 39.5831 33.1862 38.5169 33.7806L22.1538 42.935C21.6208 43.1727 21.0055 43.2918 20.4314 43.2918ZM25.4756 30.7291C18.2989 30.7291 16.8226 27.5588 16.8226 24.864C16.8226 24.6261 17.0275 24.3884 17.3148 24.3884H19.4472C19.6933 24.3884 19.8982 24.5469 19.8982 24.7846C20.2263 26.8849 21.1695 27.9155 25.5166 27.9155C28.9616 27.9155 30.4378 27.1624 30.4378 25.3792C30.4378 24.3488 30.0278 23.5957 24.6555 23.0806C20.1855 22.6446 17.3967 21.6935 17.3967 18.2458C17.3967 15.0357 20.1855 13.1335 24.8605 13.1335C30.1097 13.1335 32.6934 14.8772 33.0215 18.6816C33.0215 18.8006 32.9804 18.9195 32.8985 19.0383C32.8164 19.1175 32.6934 19.1968 32.5704 19.1968H30.4378C30.2329 19.1968 30.0278 19.0383 29.9867 18.8402C29.4946 16.6605 28.2233 15.9472 24.8605 15.9472C21.0876 15.9472 20.6365 17.2154 20.6365 18.1664C20.6365 19.3158 21.1695 19.6723 26.2549 20.3066C31.2991 20.9406 33.6777 21.8521 33.6777 25.2601C33.6366 28.7476 30.684 30.7291 25.4756 30.7291Z" fill="#ABABAB"/>
</svg>
