<svg width="39" height="40" viewBox="0 0 39 40" fill="none" xmlns="http://www.w3.org/2000/svg">
<path d="M19.3147 0.683594C9.55878 0.683594 10.168 4.93648 10.168 4.93648L10.1789 9.34243H19.4887V10.6653H6.48106C6.48106 10.6653 0.238281 9.95361 0.238281 19.8489C0.238281 29.7442 5.68712 29.3932 5.68712 29.3932H8.93902V24.8015C8.93902 24.8015 8.76375 19.3242 14.3009 19.3242C19.838 19.3242 23.5346 19.3242 23.5346 19.3242C23.5346 19.3242 28.7223 19.4084 28.7223 14.2841C28.7223 9.15973 28.7223 5.81111 28.7223 5.81111C28.7223 5.81111 29.51 0.683594 19.3147 0.683594ZM14.1812 3.64641C15.1075 3.64641 15.8561 4.39896 15.8561 5.33007C15.8561 6.26117 15.1075 7.01373 14.1812 7.01373C13.255 7.01373 12.5063 6.26117 12.5063 5.33007C12.5063 4.39896 13.255 3.64641 14.1812 3.64641Z" fill="#ABABAB"/>
<path d="M19.592 39.1136C29.3479 39.1136 28.7387 34.8607 28.7387 34.8607L28.7278 30.4547H19.418V29.1319H32.4255C32.4255 29.1319 38.6685 29.8437 38.6685 19.9483C38.6685 10.053 33.2196 10.4039 33.2196 10.4039H29.9676V14.9957C29.9676 14.9957 30.143 20.473 24.6059 20.473C19.0686 20.473 15.3721 20.473 15.3721 20.473C15.3721 20.473 10.1843 20.3888 10.1843 25.5131C10.1843 30.6374 10.1843 33.9861 10.1843 33.9861C10.1843 33.9861 9.39665 39.1136 19.592 39.1136ZM24.7255 36.1508C23.7991 36.1508 23.0506 35.3982 23.0506 34.4671C23.0506 33.536 23.7991 32.7835 24.7255 32.7835C25.6516 32.7835 26.4004 33.536 26.4004 34.4671C26.4004 35.3982 25.6516 36.1508 24.7255 36.1508Z" fill="#ABABAB"/>
</svg>
