<svg width="46" height="41" viewBox="0 0 46 41" fill="none" xmlns="http://www.w3.org/2000/svg">
<path d="M45.8018 20.4131C45.8018 17.4308 42.0672 14.6046 36.3413 12.8519C37.6626 7.01594 37.0753 2.37284 34.4877 0.886313C33.8912 0.537631 33.1938 0.372454 32.4322 0.372454V2.41872C32.8543 2.41872 33.1938 2.50131 33.4783 2.6573C34.7263 3.37304 35.2676 6.09833 34.8456 9.60358C34.7447 10.4661 34.5794 11.3746 34.3776 12.3014C32.5791 11.8609 30.6154 11.5214 28.5508 11.3012C27.312 9.60358 26.0273 8.062 24.7334 6.71312C27.7249 3.93278 30.5329 2.40955 32.4414 2.40955V0.363281C29.918 0.363281 26.6146 2.1618 23.2745 5.28167C19.9344 2.18014 16.631 0.39999 14.1076 0.39999V2.44626C16.0071 2.44626 18.8241 3.9603 21.8155 6.72229C20.5308 8.07118 19.2462 9.60358 18.0258 11.3012C15.952 11.5214 13.9883 11.8609 12.1898 12.3105C11.9788 11.3929 11.8228 10.5029 11.7127 9.64946C11.2814 6.14421 11.8136 3.41892 13.0524 2.694C13.3277 2.52883 13.6855 2.45543 14.1076 2.45543V0.409162C13.3368 0.409162 12.6394 0.57434 12.0338 0.923022C9.45535 2.40955 8.87727 7.04346 10.2078 12.8611C4.50028 14.6229 0.783966 17.44 0.783966 20.4131C0.783966 23.3951 4.51863 26.2215 10.2445 27.974C8.92315 33.81 9.51041 38.4532 12.0981 39.9398C12.6945 40.2885 13.3919 40.4535 14.1627 40.4535C16.6861 40.4535 19.9895 38.6551 23.3296 35.5351C26.6696 38.6367 29.9731 40.4168 32.4964 40.4168C33.2673 40.4168 33.9647 40.2517 34.5702 39.903C37.1488 38.4165 37.7269 33.7826 36.3963 27.9648C42.0856 26.2123 45.8018 23.3861 45.8018 20.4131ZM33.8546 14.2926C33.5151 15.4763 33.0929 16.6967 32.6157 17.917C32.2396 17.183 31.8449 16.4489 31.4137 15.7149C30.9917 14.9808 30.5421 14.265 30.0924 13.5676C31.3953 13.7603 32.6525 13.9989 33.8546 14.2926ZM29.6518 24.0652C28.9362 25.3039 28.2021 26.4783 27.4405 27.5704C26.0733 27.6897 24.6877 27.7538 23.2929 27.7538C21.9073 27.7538 20.5217 27.6897 19.1636 27.5796C18.402 26.4875 17.6588 25.3223 16.943 24.0925C16.2457 22.8906 15.6125 21.6702 15.0344 20.4405C15.6033 19.2109 16.2457 17.9814 16.9339 16.7793C17.6496 15.5405 18.3837 14.366 19.1453 13.274C20.5125 13.1547 21.8981 13.0905 23.2929 13.0905C24.6785 13.0905 26.0641 13.1547 27.4221 13.2648C28.1837 14.3568 28.927 15.5221 29.6426 16.7518C30.34 17.9538 30.9733 19.1742 31.5514 20.4039C30.9733 21.6334 30.34 22.863 29.6518 24.0652ZM32.6157 22.8722C33.1113 24.1017 33.5333 25.3313 33.882 26.5243C32.68 26.8178 31.4137 27.0656 30.1014 27.2584C30.5511 26.5518 31.0009 25.8269 31.4229 25.0837C31.8449 24.3495 32.2396 23.6064 32.6157 22.8722ZM23.3113 32.663C22.4578 31.7822 21.6045 30.8004 20.7602 29.7267C21.5861 29.7635 22.4304 29.7909 23.2837 29.7909C24.1463 29.7909 24.9996 29.7727 25.8347 29.7267C25.0088 30.8004 24.1553 31.7822 23.3113 32.663ZM16.4842 27.2584C15.1812 27.0656 13.9241 26.827 12.722 26.5335C13.0615 25.3497 13.4836 24.1293 13.9608 22.909C14.337 23.6429 14.7316 24.3771 15.1629 25.1111C15.5942 25.8452 16.0346 26.561 16.4842 27.2584ZM23.2653 8.16294C24.1188 9.04384 24.972 10.0257 25.8163 11.0993C24.9904 11.0626 24.1463 11.0351 23.2929 11.0351C22.4304 11.0351 21.5769 11.0534 20.7419 11.0993C21.5678 10.0257 22.4212 9.04384 23.2653 8.16294ZM16.4751 13.5676C16.0254 14.2742 15.5758 14.9991 15.1537 15.7424C14.7316 16.4765 14.337 17.2106 13.9608 17.9446C13.4653 16.715 13.0432 15.4855 12.6945 14.2926C13.8966 14.0081 15.1629 13.7603 16.4751 13.5676ZM8.17071 25.0561C4.92238 23.6705 2.82106 21.8537 2.82106 20.4131C2.82106 18.9723 4.92238 17.1463 8.17071 15.7699C8.95986 15.4304 9.8224 15.1276 10.7125 14.8431C11.2355 16.6416 11.9237 18.5135 12.7771 20.4313C11.9329 22.34 11.2539 24.2027 10.74 25.9921C9.83157 25.7076 8.96903 25.3956 8.17071 25.0561ZM13.1074 38.1687C11.8595 37.4529 11.3181 34.7276 11.7402 31.2224C11.8411 30.3598 12.0063 29.4514 12.2082 28.5247C14.0067 28.9652 15.9704 29.3047 18.035 29.5249C19.2738 31.2224 20.5584 32.7639 21.8523 34.113C18.8608 36.8932 16.053 38.4165 14.1443 38.4165C13.7314 38.4073 13.3827 38.3247 13.1074 38.1687ZM34.8731 31.1765C35.3044 34.6819 34.7722 37.4071 33.5333 38.1319C33.2581 38.2972 32.9002 38.3705 32.4782 38.3705C30.5786 38.3705 27.7616 36.8566 24.7702 34.0946C26.0549 32.7457 27.3396 31.2132 28.56 29.5157C30.6338 29.2955 32.5975 28.956 34.396 28.5064C34.607 29.4332 34.7722 30.3232 34.8731 31.1765ZM38.4059 25.0561C37.6168 25.3956 36.7541 25.6984 35.8641 25.9829C35.3411 24.1845 34.6529 22.3125 33.7995 20.3947C34.6437 18.486 35.3228 16.6233 35.8365 14.834C36.7449 15.1184 37.6076 15.4304 38.4151 15.7699C41.6633 17.1555 43.7647 18.9723 43.7647 20.4131C43.7555 21.8537 41.6541 23.6797 38.4059 25.0561Z" fill="#ABABAB"/>
<path d="M23.2838 24.6067C25.5998 24.6067 27.4772 22.7293 27.4772 20.4133C27.4772 18.0971 25.5998 16.2197 23.2838 16.2197C20.9678 16.2197 19.0903 18.0971 19.0903 20.4133C19.0903 22.7293 20.9678 24.6067 23.2838 24.6067Z" fill="#ABABAB"/>
</svg>
