<svg width="53" height="34" viewBox="0 0 53 34" fill="none" xmlns="http://www.w3.org/2000/svg">
<path d="M17.1401 2.96074C19.6793 0.91851 22.8705 0 26.5001 0C29.9027 0 32.5027 0.803663 34.6116 2.02453C36.3967 3.05811 37.8809 4.47163 39.317 5.93766C40.8771 7.53008 41.7235 8.30533 42.7871 8.57235C43.9304 8.8597 44.8967 8.77319 45.7796 8.39278C46.6966 7.9977 47.6928 7.21087 48.7241 5.82857L53 7.87474C52.1038 11.4792 50.4698 14.4318 47.9382 16.4679C45.3989 18.5101 42.2076 19.4286 38.5783 19.4286C35.1764 19.4286 32.5769 18.6247 30.4683 17.4041C28.4541 16.2379 26.9827 14.7366 25.828 13.5587C24.2286 11.9272 23.3699 11.127 22.2913 10.8562C21.148 10.5689 20.1817 10.6554 19.2988 11.0358C18.3818 11.4309 17.3855 12.2177 16.3543 13.6L12.0783 11.5538C12.9746 7.94939 14.6085 4.99688 17.1401 2.96074ZM26.5001 4.85714C24.4985 4.85714 22.887 5.21193 21.5881 5.84754C24.777 6.04826 26.8571 8.02155 28.972 10.0278C30.19 11.1834 31.4195 12.3498 32.8793 13.1949C34.2297 13.9767 35.9933 14.5714 38.5783 14.5714C40.5797 14.5714 42.1912 14.2166 43.4901 13.5811C40.3014 13.3802 38.2218 11.4072 36.1076 9.40102C34.8896 8.24536 33.6603 7.07875 32.2005 6.23363C30.8502 5.45192 29.086 4.85714 26.5001 4.85714ZM5.06188 17.5321C7.60109 15.4899 10.7924 14.5714 14.4218 14.5714C17.8245 14.5714 20.4246 15.375 22.5333 16.5959C24.3185 17.6295 25.8027 19.0432 27.2388 20.509C28.7988 22.1015 29.6452 22.8767 30.7088 23.1438C31.8522 23.4311 32.8184 23.3446 33.7014 22.9643C34.6183 22.5692 35.6146 21.7823 36.6458 20.4L40.9217 22.4461C40.0255 26.0506 38.3916 29.0032 35.86 31.0393C33.3207 33.0815 30.1293 34 26.5001 34C23.0981 34 20.4986 33.1961 18.39 31.9755C16.3759 30.8093 14.9043 29.308 13.7497 28.1301C12.1503 26.4986 11.2915 25.6984 10.213 25.4276C9.06976 25.1403 8.10342 25.2268 7.22053 25.6071C6.30355 26.0022 5.30726 26.7891 4.27604 28.1714L0 26.1254C0.896327 22.5209 2.53025 19.5682 5.06188 17.5321ZM14.4217 19.4286C12.4203 19.4286 10.8087 19.7834 9.50986 20.4189C12.6987 20.6198 14.7788 22.593 16.8936 24.5992C18.1117 25.7548 19.3413 26.9212 20.801 27.7663C22.1514 28.5481 23.9151 29.1429 26.5001 29.1429C28.5014 29.1429 30.1129 28.788 31.4118 28.1525C28.2231 27.9516 26.1435 25.9787 24.0293 23.9724C22.8114 22.8169 21.5819 21.6502 20.1222 20.8051C18.772 20.0233 17.0078 19.4286 14.4217 19.4286Z" fill="#ABABAB"/>
</svg>
