<svg width="45" height="44" viewBox="0 0 45 44" fill="none" xmlns="http://www.w3.org/2000/svg">
<path d="M35.0936 20.8524C35.0936 18.3931 34.2337 16.6907 33.4979 15.3653L33.2724 14.9883C32.3787 13.5093 31.5978 12.21 31.5978 10.6961C31.5978 8.86903 32.9453 7.16375 34.8455 7.16375C34.9019 7.16375 34.9564 7.16665 35.009 7.17245L35.0964 7.18115C31.5331 3.81498 26.87 1.94961 22.0321 1.95509C18.8259 1.95469 15.6699 2.77427 12.8481 4.34008C10.0263 5.90589 7.62716 8.16881 5.86657 10.9252C6.31765 10.9397 6.74899 10.9513 7.11267 10.9513C9.13407 10.9513 12.2662 10.699 12.2662 10.699C13.3094 10.6352 13.4334 12.21 12.3903 12.3376C12.3903 12.3376 11.3443 12.4652 10.1772 12.5261L17.2253 34.0858L21.4541 21.0177L18.4375 12.5232C17.3973 12.4594 16.4105 12.3347 16.4105 12.3347C15.3674 12.2709 15.4914 10.6294 16.5317 10.6932C16.5317 10.6932 19.7288 10.9455 21.6289 10.9455C23.6531 10.9455 26.7881 10.6932 26.7881 10.6932C27.8313 10.6294 27.9525 12.2071 26.9094 12.3347C26.9094 12.3347 25.8606 12.4594 24.6963 12.5232L31.688 33.9176L33.6163 27.2849L33.7686 26.7832C34.5298 24.2891 35.0908 22.4475 35.0908 20.8495L35.0936 20.8524ZM2.68365 21.8588C2.68213 25.5966 3.70426 29.2593 5.63291 32.4271C7.56156 35.5949 10.3187 38.1398 13.5885 39.77L4.35546 13.7558C3.24682 16.3046 2.67699 19.0665 2.68365 21.8588Z" fill="#ABABAB"/>
<path d="M18.89 40.7751L24.3682 23.8031L29.9767 40.1992C30.0121 40.2938 30.0556 40.3826 30.107 40.4659C26.4916 41.8253 22.5664 41.9335 18.89 40.7751ZM40.0581 12.7598C40.1396 13.3801 40.1813 14.0476 40.1831 14.7625C40.1831 16.7368 39.8374 18.958 38.7949 21.7351L33.221 38.9255C37.3342 36.3763 40.3512 32.2142 41.6289 27.3263C42.9066 22.4384 42.3439 17.2115 40.0608 12.7598H40.0581Z" fill="#ABABAB"/>
<path fill-rule="evenodd" clip-rule="evenodd" d="M0.882751 21.7633C0.882751 9.84892 10.5769 0.154785 22.4913 0.154785C34.4057 0.154785 44.0999 9.84892 44.0999 21.7633C44.0999 33.6778 34.403 43.3719 22.4913 43.3719C10.5796 43.3719 0.882751 33.6778 0.882751 21.7633ZM1.87404 21.7633C1.87404 33.1321 11.1225 42.3806 22.4913 42.3806C33.8601 42.3806 43.1059 33.1321 43.1059 21.7633C43.1059 10.3918 33.8574 1.14608 22.4913 1.14608C11.1198 1.14608 1.87404 10.3918 1.87404 21.7633Z" fill="#ABABAB"/>
</svg>
